<svg id="Layer_1" data-name="Layer 1" xmlns="http://www.w3.org/2000/svg" viewBox="0 0 60.06165 54.02303">
  <defs>
    <style>
      .cls-1 {
        fill: #ffdc00;
      }

      .cls-2 {
        fill: #c81e1e;
      }

      .cls-3 {
        fill: #f44335;
      }
    </style>
  </defs>
  <title>bird-flap</title>
  <g>
    <g id="Icons">
      <path id="Shape" class="cls-1" d="M12,1V9L1,10Z" transform="translate(0.06033 0.03148)"/>
      <path class="cls-2" d="M23.11151,10.20506,12,14V1Z" transform="translate(0.06033 0.03148)"/>
      <path class="cls-3" d="M40,12.37527C40.70517,12.50119,35.70517,34.1259,35,34l-2-5L23,32,12,14Z" transform="translate(0.06033 0.03148)"/>
      <path class="cls-2" d="M59,13.31887,36.24,27.07,40,12.75825Z" transform="translate(0.06033 0.03148)"/>
      <path class="cls-3" d="M55.62,12.37527,36.91,23.32,40,13.65187Z" transform="translate(0.06033 0.03148)"/>
      <path class="cls-2" d="M56.97233,18.84232,39.39,24.71l12.47-9.35Z" transform="translate(0.06033 0.03148)"/>
      <path class="cls-3" d="M54.91,19.47736,39.39,24.71l9.87-7.4Z" transform="translate(0.06033 0.03148)"/>
      <g>
        <path class="cls-2" d="M43,53,23,32l10-3Z" transform="translate(0.06033 0.03148)"/>
        <path class="cls-2" d="M23,32,13,29,12,14Z" transform="translate(0.06033 0.03148)"/>
      </g>
    </g>
    <path d="M1,11l10-.9c0,5.3-.19.9,1,19a1,1,0,0,0,.71.89l9.75,2.92L42.28,53.69a1,1,0,0,0,1.64-1.08L36,33.88l1.11-6.24,2.65-2,17.838-5.352a1.0054,1.0054,0,0,0,.71768-.811,1.74616,1.74616,0,0,0-.64011-1.30138l-3.15126-2.22578L59.6,14.6c.32832-.23135.40133,1.65634.40133-1.65025-.08505-.39253-.79133-.70213-.79133-.70213L41.01,12.12l-16.28.19149S25.58,9.92,12.6.18a1,1,0,0,0-1.23,0l-11,9A1,1,0,0,0,1,11ZM14,28.24,13.27,18l7.51,12.3ZM40,48.36,24.85,32.49l7.56-2.27C34.59,35.68,33.06,32,40,48.36ZM55.47808,19.15807,43.48,22.89l8.37-6.28C51.25991,17.45017,54.888,19.99826,55.47808,19.15807ZM40.8,15.12l16.7819-1.51806C56.35934,11.41387,36.40744,22.562,37.63,24.75Zm-2.07,1.14894c-1.589-.461-5.689,13.67006-4.1,14.1311l-.7-1.23748c-.16734-.50812-.70494-1.30706-1.22-1.16252l-9.26,2.78c.36636-.22439-9.54364-16.40439-9.91-16.18C13.40814,16.5901,38.59814,18.259,38.73,16.26889ZM13,3l8.87,6.65-8.87,3Zm-2,.11v5l-6.84.62Z" transform="translate(0.06033 0.03148)"/>
  </g>
</svg>
