<svg height="512" viewBox="0 0 59 56" width="512" xmlns="http://www.w3.org/2000/svg"><g id="021---Camel" fill="none"><g id="Icons" transform="translate(1 1)"><path id="Shape" d="m9.36 7.92-8.46-.83c-.51290129-.05154198-.90258325-.48452193-.9-1v-4.19c-.00310623-.51203175.38106506-.94368489.89-1l8.11-.9z" fill="#ffdc00"/><path id="Shape" d="m42 34.04h-14.76l10.76-19.04z" fill="#ff5722"/><path id="Shape" d="m57 54c-5.2-6.93-1.92-2.51-15-20l6-15 4 7z" fill="#d84315"/><path id="Shape" d="m53.06 48.75-11.06-14.71 6-15.04z" fill="#ff5722"/><path id="Shape" d="m38 15-16-1 9.1-8.19c.2220093-.19730635.5202382-.28571368.8139103-.24127646.293672.04443721.5523939.21712.7060897.47127646z" fill="#fec108"/><path id="Shape" d="m34.88 14.81-12.88-.81 8.05-7.24z" fill="#ffdc00"/><path id="Shape" d="m22 14-2.48 16.56-9.21-8.28c-.1994878-.1795884-.31840369-.4318342-.33-.7l-.98-21.58c8.36 4.18 7.94 3.88 8.15 4.3z" fill="#ff5722"/><path id="Shape" d="m48 19-6 15c-.22-1-3.78-18-4-19l5 1z" fill="#f57c00"/><g fill="#ff9801"><path id="Shape" d="m45 18-4.17 10.44-2.83-13.44 3 .6z"/><path id="Shape" d="m16 54 6-40 16 1z"/></g></g><path id="Shape" d="m1.8 10.08 7.6.77.6 13.2c.0142209.2646419.1329128.5128159.33.69l9.12 8.2-3.45 22.91c-.0719023.4771532.2071874.9375955.6634721 1.0945967s.9596044-.034225 1.1965279-.4545967l10.98-19.49h13.66l14.7 19.6c.2713679.3925681.7823147.5386776 1.2202015.3489266.4378868-.1897509.6806715-.6624773.5797985-1.1289266-5.35-29.95-5-28.08-5.11-28.32l-4-7c-.21-.35.09-.11-5.35-3.37-.23-.14-.13-.08-4.88-1l-5.8-9.64c-.1533551-.25753088-.4141414-.43269277-.7105441-.47725005-.2964028-.04455727-.5971622.04618926-.8194559.24725005l-9 8.12c-4.79-9.57-4.44-9.06-4.86-9.27-8.71-4.35-8.15-4.11-8.58-4.11l-8.12.9c-1.01390083.11735459-1.77676904.97935257-1.77 2v4.2c.00510499 1.02330049.78181492 1.87768141 1.8 1.98zm50.25 18.27 4.23 23.65-12.14-16.11 5-12.59zm-8.42-9.35 4.13 2.47-4.46 11.12-3-14.31zm-1.86 16h-11.77l8.6-15.24zm-9-26.48 4.39 7.32-11.72-.73zm-8.92 8.5 13.5.84-18.56 32.93zm-6.6-10.27 4.75 9.41-2.2 14.41-7.82-7-.9-19.88zm-15.25-2.86 7.05-.78.26 5.72-7.31-.73z" fill="#000" transform="translate(0 -1)"/></g></svg>