<svg height="512" viewBox="0 0 58 60" width="512" xmlns="http://www.w3.org/2000/svg"><g id="Page-1" fill="none" fill-rule="evenodd"><g id="033---Cake" fill-rule="nonzero"><g id="Icons" transform="translate(1 1)"><path id="Shape" d="m56 21c0 2.76-12.54 5-28 5s-28-2.24-28-5c0-1.62 4.31-3.06 11-3.97v1.97c.0032948 1.1032019.8967981 1.9967052 2 2 1.1011688-.0081672 1.9918328-.8988312 2-2v-2.43c3.33-.31 7.05-.51 11-.55v3.98c.0032948 1.1032019.8967981 1.9967052 2 2 1.1011688-.0081672 1.9918328-.8988312 2-2v-3.98c3.95.04 7.67.24 11 .55v2.43c.0032948 1.1032019.8967981 1.9967052 2 2 1.1011688-.0081672 1.9918328-.8988312 2-2v-1.97c6.69.91 11 2.35 11 3.97z" fill="#ef314c"/><path id="Shape" d="m45 17.03v.475c4.946.9 8 2.133 8 3.5 0 2.67-11.737 4.853-26.5 4.993.4973333.0013333.9973333.002 1.5.002 15.46 0 28-2.24 28-5 0-1.62-4.31-3.06-11-3.97z" fill="#bb193b"/><path id="Shape" d="m56 21v8.6c-.3712622-.1710688-.7558736-.3115355-1.15-.42-3.12-.83-4.11 2.79-6.81 3.18-1.1622864.0275039-2.2854921-.4203337-3.11-1.24-.6715477-.6332658-1.5570114-.9903076-2.48-1-1.37.16-2.01 1.59-3.1 2.28-.6348687.4400126-1.4729348.451872-2.12.03-.4609616-.3270735-.904876-.6775322-1.33-1.05-.5452947-.4661929-1.2748842-.6553225-1.9779879-.5127487-.7031038.1425738-1.30139.6009671-1.6220121 1.2427487-.86 1.46-.06 5.69-2.36 5.89-2.18.19-2.01-3.05-2.09-4.46-.00197-1.532237-.8965074-2.9228716-2.29-3.56-1.52-.51-2.55.77-3.67 1.6-.5892597.4538322-1.3368868.6503303-2.0731417.5448821-.7362549-.1054483-1.3986722-.5038966-1.8368583-1.1048821-.93-.99-1.99-2.47-3.52-2.16s-2.19 2.49-3.91 2.14c-1.49-.3-1.83-2.3-3.19-2.85-.56249109-.1982284-1.17526765-.2017501-1.74-.01-1.05.32-1.9 1.12-3.03 1.13-.91377166.0076425-1.81127321-.241856-2.59-.72v-7.55c0 2.76 12.54 5 28 5s28-2.24 28-5z" fill="#bb193b"/><path id="Shape" d="m56 29.6v7.4c0 2.76-12.54 5-28 5s-28-2.24-28-5v-8.45c.77872679.478144 1.67622834.7276425 2.59.72 1.13-.01 1.98-.81 3.03-1.13.56473235-.1917501 1.17750891-.1882284 1.74.01 1.36.55 1.7 2.55 3.19 2.85 1.72.35 2.39-1.82 3.91-2.14s2.59 1.17 3.52 2.16c.4381861.6009855 1.1006034.9994338 1.8368583 1.1048821.7362549.1054482 1.483882-.0910499 2.0731417-.5448821 1.12-.83 2.15-2.11 3.67-1.6 1.3934926.6371284 2.28803 2.027763 2.29 3.56.08 1.41-.09 4.65 2.09 4.46 2.3-.2 1.5-4.43 2.36-5.89.3206221-.6417816.9189083-1.1001749 1.6220121-1.2427487.7031037-.1425738 1.4326932.0465558 1.9779879.5127487.425124.3724678.8690384.7229265 1.33 1.05.6470652.421872 1.4851313.4100126 2.12-.03 1.09-.69 1.73-2.12 3.1-2.28.9229886.0096924 1.8084523.3667342 2.48 1 .8245079.8196663 1.9477136 1.2675039 3.11 1.24 2.7-.39 3.69-4.01 6.81-3.18.3941264.1084645.7787378.2489312 1.15.42z" fill="#a0522d"/><path id="Shape" d="m54.85 29.18c-.7772024-.2280002-1.6130484-.1392028-2.325.247.157.06.322.1.475.173v7.4c0 2.67-11.737 4.853-26.5 4.993.4973333.0046667.9973333.007 1.5.007 15.46 0 28-2.24 28-5v-7.4c-.3712622-.1710688-.7558736-.3115355-1.15-.42z" fill="#783e22"/><path id="Shape" d="m56 37v5c0 2.76-12.54 5-28 5s-28-2.24-28-5v-5c0 2.76 12.54 5 28 5s28-2.24 28-5z" fill="#f44335"/><path id="Shape" d="m53 39.25v2.75c0 2.67-11.737 4.853-26.5 4.993.4973333.0046667.9973333.007 1.5.007 15.46 0 28-2.24 28-5v-5c0 .809-1.085 1.573-3 2.25z" fill="#c81e1e"/><path id="Shape" d="m56 42v11c0 2.76-12.54 5-28 5s-28-2.24-28-5v-11c0 2.76 12.54 5 28 5s28-2.24 28-5z" fill="#a0522d"/><path id="Shape" d="m53 44.25v8.75c0 2.67-11.737 4.853-26.5 4.993.4973333.0046667.9973333.007 1.5.007 15.46 0 28-2.24 28-5v-11c0 .809-1.085 1.573-3 2.25z" fill="#783e22"/><path id="Shape" d="m15 13v6c-.0081672 1.1011688-.8988312 1.9918328-2 2-1.1032019-.0032948-1.9967052-.8967981-2-2v-6c.0081672-1.1011688.8988312-1.9918328 2-2 1.1032019.0032948 1.9967052.8967981 2 2z" fill="#ffe0b2"/><path id="Shape" d="m16.43 6.864c-.5106758.6405821-1.2600362 1.04577648-2.075677 1.1223607-.8156409.07658423-1.6273299-.18203613-2.248323-.7163607-1.3049412-1.13301978-1.4794879-3.09545499-.395-4.441 1.089-1.338 6.289-2.829 6.289-2.829s-.484 5.526-1.57 6.864z" fill="#ff9801"/><path id="Shape" d="m14.886 1.058c-.2 1.67-.669 4.836-1.456 5.806-.2395724.29361077-.5319286.53984117-.862.726 1.2895937.74717517 2.9317679.43847022 3.862-.726 1.086-1.338 1.57-6.864 1.57-6.864s-1.537.442-3.114 1.058z" fill="#f57c00"/><path id="Shape" d="m45 13v6c-.0081672 1.1011688-.8988312 1.9918328-2 2-1.1032019-.0032948-1.9967052-.8967981-2-2v-6c.0081672-1.1011688.8988312-1.9918328 2-2 1.1032019.0032948 1.9967052.8967981 2 2z" fill="#ffe0b2"/><path id="Shape" d="m46.43 6.864c-.5106758.6405821-1.2600362 1.04577648-2.075677 1.1223607-.8156409.07658423-1.6273299-.18203613-2.248323-.7163607-1.3064964-1.13159278-1.4832646-3.09416191-.4-4.441 1.094-1.338 6.294-2.829 6.294-2.829s-.484 5.526-1.57 6.864z" fill="#ff9801"/><path id="Shape" d="m44.886 1.058c-.2 1.67-.669 4.836-1.456 5.806-.2395724.29361077-.5319286.53984117-.862.726 1.2895937.74717517 2.9317679.43847022 3.862-.726 1.086-1.338 1.57-6.864 1.57-6.864s-1.537.442-3.114 1.058z" fill="#f57c00"/><path id="Shape" d="m30 14v6c-.0081672 1.1011688-.8988312 1.9918328-2 2-1.1032019-.0032948-1.9967052-.8967981-2-2v-6c.0081672-1.1011688.8988312-1.9918328 2-2 1.1032019.0032948 1.9967052.8967981 2 2z" fill="#ffe0b2"/><path id="Shape" d="m31.43 7.864c-.5106758.6405821-1.2600362 1.04577648-2.075677 1.1223607-.8156409.07658423-1.6273299-.18203613-2.248323-.7163607-1.3064964-1.13159278-1.4832646-3.09416191-.4-4.441 1.094-1.338 6.294-2.829 6.294-2.829s-.484 5.526-1.57 6.864z" fill="#ff9801"/><path id="Shape" d="m29.886 2.058c-.2 1.67-.669 4.836-1.456 5.806-.2395724.29361077-.5319286.53984117-.862.726 1.2895937.74717517 2.9317679.43847022 3.862-.726 1.086-1.338 1.57-6.864 1.57-6.864s-1.537.442-3.114 1.058z" fill="#f57c00"/></g><g id="Layer_10" fill="#000"><path id="Shape" d="m11 17.163c-11 1.616-11 4.03-11 4.837v32c0 5.932 27.816 6 29 6s29-.068 29-6v-32c0-.807-.005-3.221-11-4.837v-3.163c0-1.6568542-1.3431458-3-3-3s-3 1.3431458-3 3v2.485c-2.9-.244-5.913-.393-9-.445v-1.04c0-1.6568542-1.3431458-3-3-3s-3 1.3431458-3 3v1.04c-3.087.052-6.1.2-9 .445v-2.485c0-1.6568542-1.3431458-3-3-3s-3 1.3431458-3 3zm45 25.822c-.38 1.402-9.985 4.015-27 4.015-16.995 0-26.6-2.607-27-4.01v-2.529c8.578 4.684 45.424 4.685 54 0zm0-5c-.381 1.402-9.986 4.015-27 4.015-16.995 0-26.6-2.607-27-4.01v-6.931c2.639.718 3.645-.578 4.911-.962 1.089-.329 1.431.116 2.089 1.03.50692512.9033766 1.3506564 1.5695182 2.347 1.853 1.2118653.1571152 2.4160521-.3408539 3.163-1.308 1.119-1.082 1.541-1.405 3.352.61.131.146.259.289.38.417 1.2611664 1.6305425 3.6025404 1.9361722 5.24.684 1.124-.833 1.845-1.761 2.758-1.454.9994966.5135389 1.6234227 1.5473519 1.612 2.671.09 1.543 0 3.684 1.267 4.807.4543197.3981487 1.0410288.6121459 1.645.6 3.558 0 2.7-5.2 3.4-6.4.198874-.3859726.555239-.6668334.977-.77.974-.187 1.494.792 2.575 1.445.9704066.6188495 2.2157419.6019516 3.169-.043 1.12-.708 1.816-2.03 2.676-2.131 1.4-.156 2.907 2.621 5.622 2.236 3.022-.437 4.025-3.834 6.4-3.205.142.039.277.1.415.151zm0-13.524v4.739c-2.245-.545-3.661.721-4.8 1.747-2.144 1.934-2.819 1.785-4.666.381-4.933-3.734-5.849 2.41-7.787 1.251-.372-.224-.8-.656-1.235-.985-.7715734-.6425492-1.7920073-.9023931-2.7769248-.7071177-.9849175.1952753-1.8290215.8247931-2.2970752 1.7131177-.881 1.495-.452 5.3-1.585 5.4-.1435285.0323373-.2939087-.0047021-.406-.1-.591-.524-.553-2.624-.6-3.423-.0136393-1.9440132-1.1812212-3.6940105-2.971-4.453-3.572-1.193-4.567 4.111-7.169 1.3-1.289-1.37-2.439-2.866-4.455-2.454-1.782.376-2.536 2.333-3.507 2.139-.915-.185-1.363-2.129-3.022-2.8-.77296017-.2830763-1.6191139-.295416-2.4-.035-1.644.5-2.261 1.663-4.329.762v-4.475c8.584 4.684 45.428 4.684 54.006 0zm-27 33.539c-17.018 0-26.624-2.614-27-4v-8.539c8.578 4.684 45.425 4.684 54 0v8.524c-.376 1.401-9.982 4.015-27 4.015zm14-44c0-.5522847.4477153-1 1-1s1 .4477153 1 1v6c0 .5522847-.4477153 1-1 1s-1-.4477153-1-1zm-15 1c0-.5522847.4477153-1 1-1s1 .4477153 1 1v6c0 .5522847-.4477153 1-1 1s-1-.4477153-1-1zm-2 3.04v2.96c0 1.6568542 1.3431458 3 3 3s3-1.3431458 3-3v-2.96c3.09.053 6.107.2 9 .451v1.509c0 1.6568542 1.3431458 3 3 3s3-1.3431458 3-3v-.814c6.969 1.057 8.891 2.415 9 2.8-.548 2.025-15.273 4.6-33.027 3.9-13.193-.518-20.581-2.658-20.967-3.886.15-.43 2.1-1.769 8.994-2.814v.814c0 1.6568542 1.3431458 3 3 3s3-1.3431458 3-3v-1.509c2.893-.247 5.91-.398 9-.451zm-13-4.04c0-.5522847.4477153-1 1-1s1 .4477153 1 1v6c0 .5522847-.4477153 1-1 1s-1-.4477153-1-1z"/><path id="Shape" d="m15.063 10c.123 0 .247-.005.37-.017 1.0890425-.09816687 2.0910729-.63583293 2.775-1.489 1.215-1.5 1.7-6.433 1.788-7.407.0284587-.32783322-.1061889-.64868422-.3600781-.85802795-.2538892-.20934373-.5945193-.28038189-.9109219-.18997205-.92.263-5.569 1.653-6.791 3.16-1.4195399 1.76863927-1.189113 4.34262155.522 5.831.7244667.62565973 1.6497633.96993966 2.607.97zm-1.575-5.541c.438-.542 2.383-1.387 4.352-2.049-.278 2.128-.741 4.276-1.186 4.824-.3445956.43202904-.8498645.70559609-1.4.758-.5448108.05062765-1.0866599-.12348653-1.5-.482-.8936772-.78051263-1.0111232-2.12760933-.266-3.051z"/><path id="Shape" d="m45.063 10c.123 0 .247-.005.37-.017 1.0890425-.09816687 2.0910729-.63583293 2.775-1.489 1.215-1.5 1.7-6.433 1.788-7.407.0284587-.32783322-.1061889-.64868422-.3600781-.85802795-.2538892-.20934373-.5945193-.28038189-.9109219-.18997205-.92.263-5.569 1.653-6.791 3.16-1.4195399 1.76863927-1.189113 4.34262155.522 5.831.7244667.62565973 1.6497633.96993966 2.607.97zm-1.575-5.541c.438-.542 2.383-1.387 4.352-2.049-.278 2.128-.741 4.276-1.186 4.824-.3445956.43202904-.8498645.70559609-1.4.758-.5432131.04993867-1.0832533-.12417463-1.495-.482-.8952303-.77908978-1.0148956-2.1263176-.271-3.051z"/><path id="Shape" d="m30.063 11c.123 0 .247-.005.37-.017 1.0890425-.0981669 2.0910729-.6358329 2.775-1.489 1.215-1.5 1.7-6.433 1.788-7.407.0284587-.32783322-.1061889-.64868422-.3600781-.85802795s-.5945193-.28038189-.9109219-.18997205c-.92.263-5.569 1.653-6.791 3.16-1.4195399 1.76863927-1.189113 4.34262155.522 5.831.7244667.6256597 1.6497633.9699397 2.607.97zm-1.575-5.541c.438-.542 2.383-1.387 4.352-2.049-.278 2.128-.741 4.276-1.186 4.824-.3445956.43202904-.8498645.70559609-1.4.758-.5448885.0513392-1.0870112-.12286289-1.5-.482-.8936772-.78051263-1.0111232-2.12760933-.266-3.051z"/></g></g></g></svg>