<?xml version="1.0" encoding="iso-8859-1"?>
<!-- Generator: Adobe Illustrator 19.0.0, SVG Export Plug-In . SVG Version: 6.00 Build 0)  -->
<svg  version="1.1" id="Capa_1" xmlns="http://www.w3.org/2000/svg" xmlns:xlink="http://www.w3.org/1999/xlink" x="0px" y="0px"
	 viewBox="0 0 512 512" style="enable-background:new 0 0 512 512;" xml:space="preserve">
<g>
	<rect x="59.733" y="25.6" style="fill:#A4C2F7;" width="426.667" height="460.8"/>
	<rect x="25.6" y="25.6" style="fill:#FFFFFF;" width="426.667" height="460.8"/>
	<rect x="51.2" y="25.6" style="fill:#E3E7F2;" width="409.6" height="460.8"/>
	<path style="fill:#DC6C33;" d="M409.6,8.533h76.8c9.426,0,17.067,7.641,17.067,17.067v51.2c0,9.426-7.641,17.067-17.067,17.067
		h-76.8c-9.426,0-17.067-7.641-17.067-17.067V25.6C392.533,16.174,400.174,8.533,409.6,8.533z"/>
	<g>
		<path style="fill:#CD4F38;" d="M187.733,418.133H486.4c9.426,0,17.067,7.641,17.067,17.067v51.2
			c0,9.426-7.641,17.067-17.067,17.067H187.733c-9.426,0-17.067-7.641-17.067-17.067v-51.2
			C170.667,425.774,178.308,418.133,187.733,418.133z"/>
		<path style="fill:#CD4F38;" d="M409.6,281.6h76.8c9.426,0,17.067,7.641,17.067,17.067v51.2c0,9.426-7.641,17.067-17.067,17.067
			h-76.8c-9.426,0-17.067-7.641-17.067-17.067v-51.2C392.533,289.241,400.174,281.6,409.6,281.6z"/>
	</g>
	<path style="fill:#ED634C;" d="M187.733,145.067H486.4c9.426,0,17.067,7.641,17.067,17.067v51.2
		c0,9.426-7.641,17.067-17.067,17.067H187.733c-9.426,0-17.067-7.641-17.067-17.067v-51.2
		C170.667,152.708,178.308,145.067,187.733,145.067z"/>
	<path style="fill:#A4C2F7;" d="M341.333,25.6v51.2c0.43,8.923-6.398,16.532-15.316,17.067H57.983
		c-8.918-0.534-15.746-8.143-15.316-17.067V25.6c-0.43-8.923,6.398-16.532,15.316-17.067h268.034
		C334.935,9.068,341.763,16.677,341.333,25.6z"/>
	<path style="fill:#FFFFFF;" d="M307.2,25.6v51.2c0.43,8.923-6.398,16.532-15.316,17.067H23.85
		C14.932,93.332,8.103,85.723,8.533,76.8V25.6C8.103,16.677,14.932,9.068,23.85,8.533h268.034
		C300.802,9.068,307.63,16.677,307.2,25.6z"/>
	<g>
		<path style="fill:#A4C2F7;" d="M409.6,8.533h76.8c9.426,0,17.067,7.641,17.067,17.067v51.2c0,9.426-7.641,17.067-17.067,17.067
			h-76.8c-9.426,0-17.067-7.641-17.067-17.067V25.6C392.533,16.174,400.174,8.533,409.6,8.533z"/>
		<path style="fill:#A4C2F7;" d="M187.733,418.133H486.4c9.426,0,17.067,7.641,17.067,17.067v51.2
			c0,9.426-7.641,17.067-17.067,17.067H187.733c-9.426,0-17.067-7.641-17.067-17.067v-51.2
			C170.667,425.774,178.308,418.133,187.733,418.133z"/>
		<path style="fill:#A4C2F7;" d="M119.467,435.2v51.2c0,9.387-5.317,17.067-11.815,17.067H54.482
			c-6.498,0-11.815-7.68-11.815-17.067v-51.2c0-9.387,5.317-17.067,11.815-17.067h53.169
			C114.15,418.133,119.467,425.813,119.467,435.2z"/>
		<path style="fill:#A4C2F7;" d="M341.333,298.667v51.2c0.43,8.923-6.398,16.532-15.316,17.067H57.983
			c-8.918-0.534-15.746-8.143-15.316-17.067v-51.2c-0.43-8.923,6.398-16.532,15.316-17.067h268.034
			C334.935,282.134,341.763,289.743,341.333,298.667L341.333,298.667z"/>
	</g>
	<path style="fill:#FFFFFF;" d="M307.2,298.667v51.2c0.43,8.923-6.398,16.532-15.316,17.067H23.85
		c-8.918-0.534-15.746-8.143-15.316-17.067v-51.2c-0.43-8.923,6.398-16.532,15.316-17.067h268.034
		C300.802,282.134,307.63,289.743,307.2,298.667L307.2,298.667z"/>
	<g>
		<path style="fill:#A4C2F7;" d="M409.6,281.6h76.8c9.426,0,17.067,7.641,17.067,17.067v51.2c0,9.426-7.641,17.067-17.067,17.067
			h-76.8c-9.426,0-17.067-7.641-17.067-17.067v-51.2C392.533,289.241,400.174,281.6,409.6,281.6z"/>
		<path style="fill:#A4C2F7;" d="M187.733,145.067H486.4c9.426,0,17.067,7.641,17.067,17.067v51.2
			c0,9.426-7.641,17.067-17.067,17.067H187.733c-9.426,0-17.067-7.641-17.067-17.067v-51.2
			C170.667,152.708,178.308,145.067,187.733,145.067z"/>
	</g>
	<g>
		<path style="fill:#E3E7F2;" d="M315.733,25.6v51.2c0.636,8.672-5.783,16.259-14.441,17.067H48.574
			c-8.658-0.808-15.077-8.395-14.441-17.067V25.6c-0.637-8.672,5.783-16.259,14.441-17.067h252.718
			C309.95,9.341,316.37,16.928,315.733,25.6z"/>
		<path style="fill:#E3E7F2;" d="M477.867,435.2v51.2c0.321,9.048-6.709,16.664-15.754,17.067H186.42
			c-9.044-0.403-16.075-8.019-15.754-17.067v-51.2c-0.321-9.048,6.709-16.664,15.754-17.067h275.692
			C471.157,418.536,478.188,426.152,477.867,435.2L477.867,435.2z"/>
		<path style="fill:#E3E7F2;" d="M315.733,298.667v51.2c0.636,8.672-5.783,16.259-14.441,17.067H48.574
			c-8.658-0.808-15.077-8.395-14.441-17.067v-51.2c-0.637-8.672,5.783-16.259,14.441-17.067h252.718
			C309.95,282.408,316.37,289.995,315.733,298.667z"/>
		<path style="fill:#E3E7F2;" d="M477.867,162.133v51.2c0.321,9.048-6.709,16.664-15.754,17.067H186.42
			c-9.044-0.403-16.075-8.019-15.754-17.067v-51.2c-0.321-9.048,6.709-16.664,15.754-17.067h275.692
			C471.157,145.469,478.188,153.086,477.867,162.133z"/>
	</g>
	<path style="fill:#A4C2F7;" d="M119.467,162.133v51.2c0,9.387-5.317,17.067-11.815,17.067H54.482
		c-6.498,0-11.815-7.68-11.815-17.067v-51.2c0-9.387,5.317-17.067,11.815-17.067h53.169
		C114.15,145.067,119.467,152.747,119.467,162.133z"/>
	<path style="fill:#FFFFFF;" d="M85.333,162.133v51.2c0,9.387-5.317,17.067-11.815,17.067H20.349
		c-6.498,0-11.815-7.68-11.815-17.067v-51.2c0-9.387,5.317-17.067,11.815-17.067h53.169
		C80.016,145.067,85.333,152.747,85.333,162.133z"/>
	<g>
		<path style="fill:#E3E7F2;" d="M477.867,25.6v51.2c0.914,8.29-4.881,15.823-13.128,17.067h-59.077
			c-8.247-1.244-14.042-8.776-13.128-17.067V25.6c-0.914-8.29,4.881-15.823,13.128-17.067h59.077
			C472.986,9.777,478.78,17.31,477.867,25.6z"/>
		<path style="fill:#E3E7F2;" d="M93.867,435.2v51.2c0,9.387-4.136,17.067-9.19,17.067H43.323c-5.054,0-9.19-7.68-9.19-17.067v-51.2
			c0-9.387,4.136-17.067,9.19-17.067h41.354C89.731,418.133,93.867,425.813,93.867,435.2z"/>
		<path style="fill:#E3E7F2;" d="M477.867,298.667v51.2c0.914,8.29-4.881,15.823-13.128,17.067h-59.077
			c-8.247-1.244-14.042-8.776-13.128-17.067v-51.2c-0.914-8.29,4.881-15.823,13.128-17.067h59.077
			C472.986,282.843,478.78,290.376,477.867,298.667z"/>
		<path style="fill:#E3E7F2;" d="M93.867,162.133v51.2c0,9.387-4.136,17.067-9.19,17.067H43.323c-5.054,0-9.19-7.68-9.19-17.067
			v-51.2c0-9.387,4.136-17.067,9.19-17.067h41.354C89.731,145.067,93.867,152.747,93.867,162.133z"/>
	</g>
	<path style="fill:#428DFF;" d="M512,76.8V25.6C511.985,11.468,500.532,0.015,486.4,0h-76.8
		c-10.813,0.033-20.435,6.868-24.027,17.067h-37.279C344.702,6.868,335.08,0.033,324.267,0H25.6C11.468,0.015,0.015,11.468,0,25.6
		v51.2c0.033,10.813,6.868,20.435,17.067,24.027v37.279C6.868,141.698,0.033,151.32,0,162.133v51.2
		c0.033,10.813,6.868,20.435,17.067,24.027v37.279C6.868,278.232,0.033,287.854,0,298.667v51.2
		c0.033,10.813,6.868,20.435,17.067,24.027v37.279C6.868,414.765,0.033,424.387,0,435.2v51.2c0.015,14.132,11.468,25.585,25.6,25.6
		h76.8c10.813-0.033,20.435-6.868,24.027-17.067h37.279c3.592,10.199,13.214,17.034,24.027,17.067H486.4
		c14.132-0.015,25.585-11.468,25.6-25.6v-51.2c-0.033-10.813-6.868-20.435-17.067-24.028v-37.278
		c10.199-3.592,17.033-13.214,17.067-24.028v-51.2c-0.033-10.813-6.868-20.435-17.067-24.028v-37.278
		c10.199-3.592,17.033-13.214,17.067-24.028v-51.2c-0.033-10.813-6.868-20.435-17.067-24.028v-37.278
		C505.132,97.235,511.967,87.613,512,76.8z M409.6,17.067h76.8c4.711,0.005,8.529,3.822,8.533,8.533v51.2
		c-0.005,4.711-3.822,8.529-8.533,8.533h-76.8c-4.711-0.005-8.529-3.822-8.533-8.533V25.6
		C401.071,20.889,404.889,17.071,409.6,17.067L409.6,17.067z M187.733,136.533c-14.132,0.015-25.585,11.468-25.6,25.6v51.2
		c0.015,14.132,11.468,25.585,25.6,25.6h290.133v34.133H409.6c-14.132,0.015-25.585,11.468-25.6,25.6v51.2
		c0.015,14.132,11.468,25.585,25.6,25.6h68.267V409.6H187.733c-14.132,0.015-25.585,11.468-25.6,25.6v42.667H128V435.2
		c-0.015-14.132-11.468-25.585-25.6-25.6H34.133v-34.133h290.133c14.132-0.015,25.585-11.468,25.6-25.6v-51.2
		c-0.015-14.132-11.468-25.585-25.6-25.6H34.133v-34.133H102.4c14.132-0.015,25.585-11.468,25.6-25.6v-51.2
		c-0.015-14.132-11.468-25.585-25.6-25.6H34.133V102.4h290.133c14.132-0.015,25.585-11.468,25.6-25.6V34.133H384V76.8
		c0.015,14.132,11.468,25.585,25.6,25.6h68.267v34.133H187.733z M17.067,25.6c0.005-4.711,3.822-8.529,8.533-8.533h298.667
		c4.711,0.005,8.529,3.822,8.533,8.533v51.2c-0.005,4.711-3.822,8.529-8.533,8.533H25.6c-4.711-0.005-8.529-3.822-8.533-8.533V25.6z
		 M17.067,162.133c0.005-4.711,3.822-8.529,8.533-8.533h76.8c4.711,0.005,8.529,3.822,8.533,8.533v51.2
		c-0.005,4.711-3.822,8.529-8.533,8.533H25.6c-4.711-0.005-8.529-3.822-8.533-8.533V162.133z M17.067,298.667
		c0.005-4.711,3.822-8.529,8.533-8.533h298.667c4.711,0.005,8.529,3.822,8.533,8.533v51.2c-0.005,4.711-3.822,8.529-8.533,8.533
		H25.6c-4.711-0.005-8.529-3.822-8.533-8.533V298.667z M102.4,494.933H25.6c-4.711-0.005-8.529-3.822-8.533-8.533v-51.2
		c0.005-4.711,3.822-8.529,8.533-8.533h76.8c4.711,0.005,8.529,3.822,8.533,8.533v51.2
		C110.929,491.111,107.111,494.929,102.4,494.933L102.4,494.933z M494.933,486.4c-0.005,4.711-3.822,8.529-8.533,8.533H187.733
		c-4.711-0.005-8.529-3.822-8.533-8.533v-51.2c0.005-4.711,3.822-8.529,8.533-8.533H486.4c4.711,0.005,8.529,3.822,8.533,8.533
		V486.4z M494.933,349.867c-0.005,4.711-3.822,8.529-8.533,8.533h-76.8c-4.711-0.005-8.529-3.822-8.533-8.533v-51.2
		c0.005-4.711,3.822-8.529,8.533-8.533h76.8c4.711,0.005,8.529,3.822,8.533,8.533V349.867z M494.933,213.333
		c-0.005,4.711-3.822,8.529-8.533,8.533H187.733c-4.711-0.005-8.529-3.822-8.533-8.533v-51.2c0.005-4.711,3.822-8.529,8.533-8.533
		H486.4c4.711,0.005,8.529,3.822,8.533,8.533V213.333z"/>
</g>
<g>
</g>
<g>
</g>
<g>
</g>
<g>
</g>
<g>
</g>
<g>
</g>
<g>
</g>
<g>
</g>
<g>
</g>
<g>
</g>
<g>
</g>
<g>
</g>
<g>
</g>
<g>
</g>
<g>
</g>
</svg>
