<svg  viewBox="0 0 60 60" xmlns="http://www.w3.org/2000/svg"><g id="020---Heart" fill="none"><g id="Icons_copy" transform="translate(1 1)"><path id="Shape" d="m58 22-28.22 35c-.1897968.2365713-.4767035.3742205-.78.3742205s-.5902032-.1376492-.78-.3742205l-28.22-35 29-13c35.35 15.84 18.36 8.22 29 13z" fill="#cad9fc"/><path id="Shape" d="m55.35 20.81-28.25 34.83-27.1-33.64 29-13c0-.11-1.93-.93 26.35 11.81z" fill="#e8edfc"/><path id="Shape" d="m29 9-14.23 6.38-5.77-15.38h12z" fill="#e8edfc"/><path id="Shape" d="m14.77 15.38-14.77 6.62v-13l9-9z" fill="#a4c2f7"/><path id="Shape" d="m50 0-5.91 15.76-15.09-6.76 8-9z" fill="#e8edfc"/><path id="Shape" d="m58 9v13l-13.91-6.24c5.79-15.43 4.73-12.63 5.91-15.76z" fill="#7facfa"/><path id="Shape" d="m55 9v11.65l-10.91-4.89 5.02-13.39z" fill="#a4c2f7"/></g><path id="Shape" d="m28.22 57c.1897968.2365713.4767035.3742205.78.3742205s.5902032-.1376492.78-.3742205l.72-.89-27.5-34.11v-13l9-9h-3l-9 9v13z" fill="#fff" transform="translate(1 1)"/><g id="Layer_2" transform="translate(-1 -1)"><path id="Rectangle-path" d="m3.508 23.12h2v8h-2z" fill="#fff" transform="matrix(.779 -.627 .627 .779 -16.015 8.827)"/><g fill="#428dff"><path id="Shape" d="m4.53 28.12c-.55228475 0-1-.4477153-1-1s.44771525-1 1-1 1 .4477153 1 1-.44771525 1-1 1z"/><path id="Shape" d="m61 11c-.0003498-.2430724-.0892223-.4776958-.25-.66l-8-9c-.0599985-.05553392-.1272841-.1026338-.2-.14-.0443269-.03349242-.0911275-.06357851-.14-.09-.0699163-.00484131-.1400837-.00484131-.21 0-.0601993-.04736216-.127764-.08452275-.2-.11h-13c-.2872272.00036372-.5604302.12421575-.75.34l-7.25 8.15-7.25-8.15c-.1895698-.21578425-.4627728-.33963628-.75-.34h-12c-.0665838-.00470067-.1334162-.00470067-.2 0-.0498808-.00488174-.1001192-.00488174-.15 0l-.19.18c-.0556085.03324213-.1090494.06998276-.16.11l-9 9c-.19085565.1870714-.29889058.4427541-.3.71v13c-.00371719.0632788-.00371719.1267212 0 .19-.01031783.0662675-.01031783.1337325 0 .2.02093528.0349493.04432752.0683668.07.1.04422724.0739488.09439243.14418.15.21l.16.11c.04984143.0358239.1035029.0660084.16.09.07928424.0151342.16071576.0151342.24 0 .06405368.0508203.13959325.0851565.22.1.06324723.0046704.12675277.0046704.19 0 .06890203-.0059212.13641767-.0228001.2-.05l28.61-12.85 27.41 12.28-26.41 32.78v-27.16c0-.5522847-.4477153-1-1-1s-1 .4477153-1 1v27.16l-22.2-27.56c-.34793939-.4307821-.9792179-.4979394-1.41-.15s-.49793939.9792179-.15 1.41l24 29.77c.037652.0607938.0811952.1177348.13.17.1812596.1361491.4034009.2066701.63.2.3025884.0010289.5893699-.1350085.78-.37l29-36s0-.05 0-.07c.0336393-.0477243.0637206-.0978597.09-.15.0399446-.0879188.060412-.1834334.06-.28.0364141-.0349011.0609069-.0803876.07-.13zm-2 11.46-11.65-5.22 5-13.34 6.65 7.48zm-19.55-19.46h11.11l-5 13.42-12.91-5.77zm-10.1 7.65-12.02 5.35-4.89-13h10.11zm-18.74-6.84 4.89 13-12.5 5.65v-11z"/><path id="Shape" d="m31 27c.5522847 0 1-.4477153 1-1v-1c0-.5522847-.4477153-1-1-1s-1 .4477153-1 1v1c0 .5522847.4477153 1 1 1z"/></g></g></g></svg>