<svg  viewBox="0 -17 503.87855 503" xmlns="http://www.w3.org/2000/svg"><path d="m445.125 89.660156c1.066406 1.457032 1.078125 3.433594.027344 4.902344-1.046875 1.46875-2.921875 2.097656-4.644532 1.5625-6.445312-1.871094-13.101562-2.941406-19.808593-3.191406-6.132813-.265625-12.277344-.066406-18.382813.589844-33.40625 3.777343-66.808594 19.050781-100.214844 14.773437h-.085937c-6.882813-.824219-13.625-2.546875-20.058594-5.121094-3.144531-1.3125-5.171875-4.402343-5.121093-7.808593v-49.351563c0-1.6875.527343-3.332031 1.511718-4.699219 2.15625-3.03125 6.023438-4.320312 9.566406-3.191406 4.652344 1.449219 9.429688 2.460938 14.269532 3.023438 33.492187 4.28125 66.980468-11.164063 100.46875-14.773438 14.253906-1.917969 28.753906-.539062 42.386718 4.027344 1.511719.527344 2.589844 1.863281 2.785157 3.449218.195312 1.585938-.523438 3.144532-1.859375 4.023438-8.332032 5.421875-16.140625 11.605469-23.335938 18.464844-.835937.75-1.335937 1.804687-1.382812 2.925781s.359375 2.214844 1.132812 3.035156c8.15625 8.625 15.753906 17.765625 22.746094 27.359375zm0 0" fill="#c81e1e"/><path d="m397.449219 56.339844c-.835938.75-1.335938 1.804687-1.382813 2.925781s.359375 2.214844 1.132813 3.035156c8.15625 8.625 15.753906 17.765625 22.746093 27.359375.71875.929688.992188 2.125.753907 3.273438-.246094 1.160156-.96875 2.167968-1.988281 2.773437-1.019532.605469-2.246094.757813-3.382813.417969-4.257813-1.230469-8.609375-2.101562-13.011719-2.601562-33.40625-4.113282-66.808594 11.164062-100.214844 14.773437h-.085937c-6.882813-.824219-13.625-2.546875-20.058594-5.121094-3.144531-1.3125-5.171875-4.402343-5.121093-7.808593v-49.351563c0-1.6875.527343-3.332031 1.511718-4.699219 7.925782.824219 15.921875.769532 23.835938-.167968 33.492187-3.609376 66.980468-19.054688 100.46875-14.773438 5.867187.703125 11.640625 2.054688 17.207031 4.027344 1.507813.527344 2.589844 1.863281 2.785156 3.449218.195313 1.585938-.527343 3.144532-1.859375 4.023438-8.332031 5.421875-16.140625 11.605469-23.335937 18.464844zm0 0" fill="#f44335"/><path d="m495.402344 386.285156c-.152344-11.308594-1.160156-22.585937-3.023438-33.742187-.503906-2.769531-1.007812-5.539063-1.59375-8.222657-.589844-2.855468-1.175781-5.625-1.929687-8.394531-3.601563-14.785156-8.71875-29.160156-15.277344-42.890625-1.175781-2.519531-2.433594-5.035156-3.691406-7.46875-1.511719-2.855468-3.023438-5.625-4.617188-8.394531l-3.777343-6.296875c-2.6875-4.28125-5.457032-8.390625-8.394532-12.503906-1.59375-2.265625-3.273437-4.449219-5.035156-6.632813-4.445312-5.796875-9.238281-11.316406-14.351562-16.535156-.742188-.851563-1.527344-1.664063-2.351563-2.433594-1.929687-2.097656-3.945313-4.027343-5.960937-5.960937-3.019532-2.851563-6.210938-5.707032-9.398438-8.390625-23.386719-19.851563-50.832031-34.347657-80.410156-42.472657-2.769532-.839843-5.539063-1.511718-8.394532-2.179687-2.683593-.671875-5.453124-1.261719-8.222656-1.765625-13.296875-2.632812-26.820312-3.953125-40.375-3.945312-4.195312 0-8.476562.085937-12.589844.421874-10.554687.578126-21.050781 1.984376-31.390624 4.195313-2.769532.503906-5.457032 1.175781-8.140626 1.847656-2.855468.671875-5.625 1.511719-8.394531 2.351563-28.253906 8.371094-54.464843 22.519531-76.96875 41.546875-3.1875 2.683593-6.378906 5.453125-9.398437 8.390625-2.015625 1.933594-4.03125 3.863281-5.960938 5.960937-.753906.753907-1.59375 1.59375-2.351562 2.433594-6.453125 6.730469-12.453125 13.878906-17.960938 21.402344-1.679687 2.183593-3.273437 4.449219-4.867187 6.800781-2.9375 4.28125-5.792969 8.8125-8.394531 13.34375-.082032.167969-.167969.253906-.25.421875-1.597657 2.769531-3.105469 5.539063-4.535157 8.394531-1.339843 2.433594-2.601562 4.949219-3.777343 7.46875-6.710938 13.945313-11.890626 28.582032-15.441407 43.644532 1.101563-.253907 2.226563-.421876 3.355469-.503907 1.28125-.167969 2.570312-.253906 3.863281-.25 1.234375 0 2.46875.082031 3.691407.25.367187-.011719.730468.015625 1.089843.085938h.421875c.167969.082031.335938.082031.503906.167969h.335938c.566406.070312 1.128906.183593 1.679688.335937 1.53125.339844 3.042968.761719 4.53125 1.257813 1.316406.460937 2.605468.992187 3.859374 1.59375l-23.332031-2.9375c-.484375.074218-.960937.183593-1.425781.335937-.488281.0625-.964844.175781-1.429688.335937l-.753906.253907c-.601562.15625-1.1875.351562-1.761718.585937-.335938.082032-.671876.25-1.007813.335938-.351563.105468-.6875.246094-1.007813.417968-1.777343.6875-3.492187 1.53125-5.121093 2.519532-2.503907 1.457031-4.890625 3.113281-7.132813 4.953125-1.207031.964843-2.355468 2.003906-3.441406 3.105469l-1.261719 1.257812-2.011719 2.015625c-.839843 1.007813-1.761718 2.011719-2.601562 3.019531-.933594 1.019532-1.773438 2.113282-2.519531 3.273438-1.007813 1.261718-1.929688 2.601562-2.851563 3.945312-1.976562 2.851563-3.769531 5.824219-5.375 8.898438-.753906 1.34375-1.507812 2.769531-2.179687 4.195312-.839844 1.59375-1.597657 3.273438-2.351563 5.035156-.546875 1.019532-.996094 2.085938-1.34375 3.191407-.699218 1.53125-1.316406 3.101562-1.84375 4.699219-.59375 1.105468-1.019531 2.296874-1.261718 3.527343-.558594 1.214844-1.007813 2.480469-1.34375 3.777344-.308594.667969-.535157 1.371094-.667969 2.097656-.160157.21875-.246094.484375-.253907.753907-.585937 1.761718-1.089843 3.609374-1.59375 5.539062-.085937.085938-.085937.167969-.085937.335938-.1875.460937-.328125.9375-.417969 1.429687-.757812 2.683594-1.425781 5.453125-2.015625 8.308594v.082031c-1.355469 6.15625-2.390625 12.375-3.105469 18.632812-.335937 2.4375-.585937 4.871094-.753906 7.386719-.421875 4.03125-.671875 8.144531-.839844 12.339844-.058593 2.257813.800782 4.445313 2.382813 6.058594s3.75 2.515625 6.011719 2.503906h461.46875c9.261718-.027344 16.761718-7.527344 16.789062-16.789063v-54.640624l.417969.085937c0-1.429687 0-2.855469-.082031-4.199219zm-379.71875-29.964844-1.511719 2.769532c-.335937-.503906-.671875-.921875-1.007813-1.339844-3.179687-4.167969-6.84375-7.945312-10.910156-11.25 2.890625-3.105469 7.648438-3.5625 11.074219-1.054688 3.429687 2.503907 4.4375 7.179688 2.355469 10.875zm0 0" fill="#0377bc"/><path d="m470.054688 386.285156c-.152344-11.308594-1.164063-22.585937-3.023438-33.742187-.503906-2.769531-1.007812-5.539063-1.59375-8.222657-.589844-2.855468-1.175781-5.625-1.929688-8.394531-3.601562-14.785156-8.722656-29.160156-15.277343-42.890625-1.175781-2.519531-2.433594-5.035156-3.695313-7.46875-1.507812-2.855468-3.019531-5.625-4.613281-8.394531l-3.777344-6.296875c-2.6875-4.28125-5.457031-8.390625-8.394531-12.503906-1.59375-2.265625-3.273438-4.449219-5.035156-6.632813-4.445313-5.796875-9.238282-11.316406-14.355469-16.535156-.738281-.851563-1.523437-1.664063-2.347656-2.433594-1.929688-2.097656-3.945313-4.027343-5.960938-5.960937-3.019531-2.851563-6.210937-5.707032-9.398437-8.390625-23.386719-19.851563-50.832032-34.347657-80.410156-42.472657-2.769532-.839843-5.539063-1.511718-8.394532-2.179687-2.683594-.671875-5.453125-1.261719-8.226562-1.765625-9.109375-1.8125-18.335938-2.992188-27.613282-3.523438-10.554687.578126-21.050781 1.984376-31.390624 4.195313-2.769532.503906-5.457032 1.175781-8.140626 1.847656-2.855468.671875-5.625 1.511719-8.394531 2.351563-28.253906 8.371094-54.464843 22.519531-76.96875 41.546875-3.1875 2.683593-6.378906 5.453125-9.398437 8.390625-2.015625 1.933594-4.03125 3.863281-5.960938 5.960937-.753906.753907-1.59375 1.59375-2.351562 2.433594-6.453125 6.730469-12.453125 13.878906-17.960938 21.402344-1.679687 2.183593-3.273437 4.449219-4.867187 6.800781-2.9375 4.28125-5.792969 8.8125-8.394531 13.34375-.082032.167969-.167969.253906-.25.421875-1.597657 2.769531-3.105469 5.539063-4.535157 8.394531-1.339843 2.433594-2.601562 4.949219-3.777343 7.46875-6.710938 13.945313-11.890626 28.582032-15.441407 43.644532-.484375.074218-.960937.183593-1.425781.335937-.488281.0625-.964844.175781-1.429688.335937l-.753906.253907c-.601562.15625-1.1875.351562-1.761718.585937 1.089843.417969 2.265624.921875 3.355468 1.425782l-5.371094-.671876c-1.777343.6875-3.492187 1.53125-5.121093 2.519532-2.503907 1.457031-4.890625 3.113281-7.132813 4.953125-1.207031.964843-2.355468 2.003906-3.441406 3.105469l-1.261719 1.257812-2.011719 2.015625c-.839843 1.007813-1.761718 2.011719-2.601562 3.019531-.933594 1.019532-1.773438 2.113282-2.519531 3.273438-1.007813 1.261718-1.929688 2.601562-2.851563 3.945312-1.976562 2.851563-3.769531 5.824219-5.375 8.898438-.753906 1.34375-1.507812 2.769531-2.179687 4.195312-.839844 1.59375-1.597657 3.273438-2.351563 5.035156-.546875 1.019532-.996094 2.085938-1.34375 3.191407-.699218 1.53125-1.316406 3.101562-1.84375 4.699219-.59375 1.105468-1.019531 2.296874-1.261718 3.527343-.558594 1.214844-1.007813 2.480469-1.34375 3.777344-.308594.667969-.535157 1.371094-.667969 2.097656-.160157.21875-.246094.484375-.253907.753907-.585937 1.761718-1.089843 3.609374-1.59375 5.539062-.085937.085938-.085937.167969-.085937.335938-.1875.460937-.328125.9375-.417969 1.429687-.757812 2.683594-1.425781 5.453125-2.015625 8.308594v.082031c-1.355469 6.15625-2.390625 12.375-3.105469 18.632812-.335937 2.4375-.585937 4.871094-.753906 7.386719-.421875 4.03125-.671875 8.144531-.839844 12.339844-.058593 2.257813.800782 4.445313 2.382813 6.058594s3.75 2.515625 6.011719 2.503906h436.121094c9.261718-.027344 16.761718-7.527344 16.789062-16.789063v-54.640624l.417969.085937c0-1.429687 0-2.855469-.082031-4.199219zm-379.722657-29.964844-1.507812 2.769532c-.335938-.503906-.671875-.921875-1.007813-1.339844-3.179687-4.167969-6.84375-7.945312-10.914062-11.25 2.894531-3.105469 7.652344-3.5625 11.078125-1.054688 3.429687 2.503907 4.4375 7.179688 2.351562 10.875zm0 0" fill="#02a9f4"/><path d="m91.507812 339.617188-23.332031-2.9375c2.371094-.503907 4.792969-.757813 7.21875-.753907 5.578125.003907 11.089844 1.265625 16.113281 3.691407zm0 0" fill="#84b5cb"/><path d="m134.148438 394.679688c-.652344-.003907-1.300782.078124-1.929688.25-4.199219-13.382813-10.640625-25.957032-19.054688-37.179688-8.492187-12.773438-22.464843-20.84375-37.769531-21.824219h75.539063c23.921875 0 44.90625 23.417969 56.824218 58.753907zm0 0" fill="#3f51b5"/><path d="m217.914062 453.265625c.058594 2.257813-.804687 4.445313-2.386718 6.058594-1.578125 1.613281-3.746094 2.515625-6.007813 2.503906h-75.539062c2.257812.011719 4.425781-.890625 6.007812-2.503906s2.441407-3.800781 2.382813-6.058594c-.429688-14.074219-2.226563-28.074219-5.371094-41.800781h75.457031c3.171875 13.722656 5 27.722656 5.457031 41.800781zm0 0" fill="#3f51b5"/><path d="m142.371094 453.265625c.058594 2.257813-.800782 4.445313-2.382813 6.058594s-3.75 2.515625-6.007812 2.503906h-117.171875c-2.261719.011719-4.429688-.890625-6.011719-2.503906s-2.441406-3.800781-2.382813-6.058594c.167969-4.195313.417969-8.308594.839844-12.339844.167969-2.515625.417969-4.949219.753906-7.386719.714844-6.257812 1.75-12.476562 3.105469-18.632812v-.082031c.589844-2.855469 1.257813-5.625 2.015625-8.308594.089844-.492187.230469-.96875.417969-1.429687 0-.167969 0-.25.085937-.335938.503907-1.929688 1.007813-3.777344 1.59375-5.539062.007813-.269532.09375-.535157.253907-.753907.132812-.726562.359375-1.429687.667969-2.097656.335937-1.296875.785156-2.5625 1.34375-3.777344.242187-1.230469.667968-2.421875 1.261718-3.527343.527344-1.597657 1.144532-3.167969 1.84375-4.699219.347656-1.105469.796875-2.171875 1.34375-3.191407.753906-1.761718 1.511719-3.441406 2.351563-5.035156.671875-1.425781 1.425781-2.851562 2.179687-4.195312 1.605469-3.074219 3.398438-6.046875 5.375-8.898438.921875-1.34375 1.84375-2.683594 2.851563-3.945312.746093-1.160156 1.585937-2.253906 2.519531-3.273438.839844-1.007812 1.761719-2.011718 2.601562-3.019531l2.011719-2.015625 1.261719-1.257812c1.085938-1.101563 2.234375-2.140626 3.441406-3.105469 2.242188-1.839844 4.628906-3.496094 7.132813-4.953125 1.949219-1.164063 4-2.148438 6.128906-2.9375.921875-.335938 1.84375-.671875 2.769531-.921875l.753906-.253907c.464844-.160156.941407-.273437 1.429688-.335937.464844-.152344.941406-.261719 1.425781-.335937 1.101563-.253907 2.226563-.421876 3.355469-.503907 1.28125-.167969 2.570312-.253906 3.863281-.25 1.234375 0 2.46875.082031 3.691407.25.367187-.011719.730468.015625 1.089843.085938h.421875c.335938.082031.585938.082031.839844.167969.566406.070312 1.128906.183593 1.679688.335937 1.53125.339844 3.042968.761719 4.53125 1.257813 1.316406.460937 2.605468.992187 3.859374 1.59375 3.886719 1.78125 7.503907 4.097656 10.746094 6.882812 4.066406 3.304688 7.730469 7.082031 10.910156 11.25.335938.417969.671876.835938 1.007813 1.339844 7.894531 10.902344 13.988281 23.003906 18.046875 35.839844l1.257812 3.527343v.082031c1.257813 4.199219 2.433594 8.480469 3.523438 12.925782.253906 1.09375.503906 2.265625.757812 3.359375 2.660157 12.652343 4.203126 25.515625 4.613282 38.441406zm0 0" fill="#00bcd4"/><path d="m108.96875 461.828125h-67.148438c-.042968-10.65625.800782-21.296875 2.515626-31.8125.894531-5.582031 2.125-11.105469 3.695312-16.535156.71875-3.015625 1.617188-5.984375 2.683594-8.898438v-.082031c1.765625-5.121094 3.527344-9.652344 5.375-13.683594 2.28125-5.503906 5.300781-10.667968 8.980468-15.359375 2.410157-3.390625 6.179688-5.566406 10.324219-5.957031 4.257813.074219 8.183594 2.324219 10.40625 5.957031 3.414063 4.949219 6.367188 10.203125 8.8125 15.695313.121094.316406.261719.625.421875.925781v.082031c3.257813 6.878906 5.871094 14.042969 7.804688 21.40625 1.539062 5.402344 2.746094 10.898438 3.609375 16.449219 1.71875 10.515625 2.558593 21.15625 2.519531 31.8125zm0 0" fill="#3f51b5"/><path d="m50.714844 412.933594c-2.21875.011718-4.355469-.863282-5.929688-2.433594-1.574218-1.566406-2.460937-3.695312-2.460937-5.917969v-.082031c.023437-4.632812 3.789062-8.367188 8.417969-8.351562 4.632812.011718 8.375 3.773437 8.367187 8.40625-.007813 4.628906-3.761719 8.378906-8.394531 8.378906zm0 0"/><path d="m495.484375 398.875c-4.636719 0-8.394531-3.757812-8.394531-8.390625 0-1.253906.007812-2.503906-.0625-3.6875-.574219-44.382813-14.800782-87.511719-40.742188-123.527344-7.871094-10.949219-16.785156-21.105469-26.617187-30.332031-78.980469-75.320312-203.191407-75.335938-282.1875-.03125-11.238281 10.613281-21.285157 22.421875-29.964844 35.214844-4.667969 6.824218-8.894531 13.933594-12.660156 21.292968-8.246094 15.542969-14.46875 32.078126-18.511719 49.207032-1.066406 4.507812-5.589844 7.300781-10.101562 6.230468-4.511719-1.066406-7.300782-5.589843-6.234376-10.101562 4.363282-18.488281 11.078126-36.339844 19.976563-53.121094 4.070313-7.945312 8.640625-15.625 13.679687-22.988281 9.351563-13.785156 20.179688-26.503906 32.289063-37.941406 46.894531-43.929688 110.445313-65.519531 174.398437-59.246094 63.949219 6.273437 122.09375 39.800781 159.554688 92.011719 19.195312 26.617187 32.519531 57.007812 39.105469 89.160156 2.964843 14.320312 4.566406 28.886719 4.78125 43.511719.078125 1.144531.085937 2.746093.085937 4.34375 0 2.226562-.882812 4.363281-2.457031 5.9375s-3.710937 2.457031-5.9375 2.457031zm0 0"/><path d="m478.277344 470.21875h-461.453125c-4.582031-.011719-8.964844-1.875-12.152344-5.167969-3.148437-3.234375-4.832031-7.617187-4.6601562-12.128906 1.9921872-55.289063 22.1914062-101.898437 51.4726562-118.734375 7.234375-4.308594 15.488281-6.609375 23.910156-6.65625 17.914063.894531 34.359375 10.179688 44.382813 25.054688 18.238281 23.339843 29.539062 59.914062 30.996094 100.339843l.007812.507813h327.496094c4.632812-.007813 8.386718-3.761719 8.394531-8.394532v-58.753906c0-4.636718 3.757813-8.394531 8.394531-8.394531 4.632813 0 8.390625 3.757813 8.390625 8.394531v58.753906c-.011719 13.902344-11.277343 25.164063-25.179687 25.179688zm-402.882813-125.898438c-5.472656.058594-10.828125 1.582032-15.511719 4.402344-24.03125 13.816406-41.335937 55.933594-43.089843 104.8125l117.164062-.101562c-1.273437-36.328125-11.535156-70.203125-27.40625-90.515625-7.046875-10.585938-18.496093-17.421875-31.15625-18.597657zm0 0"/><path d="m108.96875 470.21875c-4.636719 0-8.394531-3.757812-8.394531-8.390625.636719-22.714844-3.84375-45.277344-13.105469-66.027344-.109375-.226562-.207031-.457031-.296875-.695312-5.871094-12.132813-8.839844-17.214844-11.777344-17.214844-.066406 0-6.957031 1.25-16.5625 28.835937-.058593.210938-.117187.417969-.1875.621094-5.835937 17.5625-8.683593 35.976563-8.429687 54.480469 0 4.632813-3.757813 8.390625-8.394532 8.390625-4.636718 0-8.394531-3.757812-8.394531-8.390625-.246093-20.191406 2.851563-40.285156 9.175781-59.460937.054688-.203126.117188-.410157.179688-.605469 9.582031-27.742188 19.945312-40.65625 32.613281-40.65625 14 0 19.824219 12.058593 27.195313 27.324219.117187.242187.222656.492187.3125.746093 10.136718 22.847657 15.074218 47.664063 14.457031 72.652344 0 4.632813-3.757813 8.390625-8.390625 8.390625zm0 0"/><path d="m209.503906 470.21875h-24.996094c-4.636718 0-8.394531-3.757812-8.394531-8.390625 0-4.636719 3.757813-8.394531 8.394531-8.394531h24.996094c-2.128906-60.117188-28.417968-109.113282-58.570312-109.113282-4.636719 0-8.394532-3.757812-8.394532-8.394531s3.757813-8.394531 8.394532-8.394531c40.40625 0 72.8125 53.914062 75.382812 125.40625.171875 4.507812-1.511718 8.886719-4.660156 12.113281-3.1875 3.292969-7.570312 5.160157-12.152344 5.167969zm0 0"/><path d="m95.035156 400.511719c-2.222656.011719-4.355468-.867188-5.933594-2.433594-1.574218-1.566406-2.460937-3.695313-2.460937-5.917969v-.082031c.023437-4.632813 3.789063-8.371094 8.421875-8.355469 4.628906.015625 8.371094 3.777344 8.363281 8.40625-.003906 4.632813-3.761719 8.382813-8.390625 8.382813zm0 0"/><path d="m150.933594 344.320312h-75.539063c-4.636719 0-8.394531-3.757812-8.394531-8.394531s3.757812-8.394531 8.394531-8.394531h75.539063c4.636718 0 8.394531 3.757812 8.394531 8.394531s-3.757813 8.394531-8.394531 8.394531zm0 0"/><path d="m425.398438 235.203125h-293.683594c-4.636719 0-8.394532-3.757813-8.394532-8.394531 0-4.632813 3.757813-8.390625 8.394532-8.390625h293.683594c4.636718 0 8.394531 3.757812 8.394531 8.390625 0 4.636718-3.757813 8.394531-8.394531 8.394531zm0 0"/><path d="m490.785156 352.710938h-315.679687c-4.632813 0-8.390625-3.757813-8.390625-8.390626 0-4.636718 3.757812-8.394531 8.390625-8.394531h315.679687c4.636719 0 8.394532 3.757813 8.394532 8.394531 0 4.632813-3.757813 8.390626-8.394532 8.390626zm0 0"/><path d="m469.886719 293.957031h-382.492188c-4.632812 0-8.390625-3.757812-8.390625-8.390625 0-4.636718 3.757813-8.394531 8.390625-8.394531h382.492188c4.632812 0 8.390625 3.757813 8.390625 8.394531 0 4.632813-3.757813 8.390625-8.390625 8.390625zm0 0"/><path d="m276.835938 411.464844c-4.636719 0-8.394532-3.757813-8.394532-8.390625v-58.753907c0-4.636718 3.757813-8.394531 8.394532-8.394531 4.636718 0 8.394531 3.757813 8.394531 8.394531v58.753907c0 4.632812-3.757813 8.390625-8.394531 8.390625zm0 0"/><path d="m276.835938 293.957031c-4.636719 0-8.394532-3.757812-8.394532-8.390625v-58.757812c0-4.632813 3.757813-8.390625 8.394532-8.390625 4.636718 0 8.394531 3.757812 8.394531 8.390625v58.757812c0 4.632813-3.757813 8.390625-8.394531 8.390625zm0 0"/><path d="m327.195312 235.203125c-4.632812 0-8.390624-3.757813-8.390624-8.394531v-53.042969c0-4.636719 3.757812-8.394531 8.390624-8.394531 4.636719 0 8.394532 3.757812 8.394532 8.394531v53.042969c0 4.636718-3.757813 8.394531-8.394532 8.394531zm0 0"/><path d="m327.195312 352.710938c-4.632812 0-8.390624-3.757813-8.390624-8.390626v-58.753906c0-4.636718 3.757812-8.394531 8.390624-8.394531 4.636719 0 8.394532 3.757813 8.394532 8.394531v58.753906c0 4.632813-3.757813 8.390626-8.394532 8.390626zm0 0"/><path d="m327.195312 470.21875c-4.632812 0-8.390624-3.757812-8.390624-8.390625v-58.753906c0-4.636719 3.757812-8.394531 8.390624-8.394531 4.636719 0 8.394532 3.757812 8.394532 8.394531v58.753906c0 4.632813-3.757813 8.390625-8.394532 8.390625zm0 0"/><path d="m453.097656 411.464844c-4.636718 0-8.394531-3.757813-8.394531-8.390625v-58.753907c0-4.636718 3.757813-8.394531 8.394531-8.394531 4.636719 0 8.394532 3.757813 8.394532 8.394531v58.753907c0 4.632812-3.757813 8.390625-8.394532 8.390625zm0 0"/><path d="m369.164062 411.464844c-4.636718 0-8.394531-3.757813-8.394531-8.390625v-58.753907c0-4.636718 3.757813-8.394531 8.394531-8.394531 4.636719 0 8.394532 3.757813 8.394532 8.394531v58.753907c0 4.632812-3.757813 8.390625-8.394532 8.390625zm0 0"/><path d="m369.164062 293.957031c-4.636718 0-8.394531-3.757812-8.394531-8.390625v-58.757812c0-4.632813 3.757813-8.390625 8.394531-8.390625 4.636719 0 8.394532 3.757812 8.394532 8.390625v58.757812c0 4.632813-3.757813 8.390625-8.394532 8.390625zm0 0"/><path d="m226.476562 235.203125c-4.636718 0-8.394531-3.757813-8.394531-8.394531v-52.289063c0-4.636719 3.757813-8.394531 8.394531-8.394531 4.632813 0 8.390626 3.757812 8.390626 8.394531v52.289063c0 4.636718-3.757813 8.394531-8.390626 8.394531zm0 0"/><path d="m226.476562 352.710938c-4.636718 0-8.394531-3.757813-8.394531-8.390626v-58.753906c0-4.636718 3.757813-8.394531 8.394531-8.394531 4.632813 0 8.390626 3.757813 8.390626 8.394531v58.753906c0 4.632813-3.757813 8.390626-8.390626 8.390626zm0 0"/><path d="m184.507812 293.957031c-4.636718 0-8.394531-3.757812-8.394531-8.390625v-58.757812c0-4.632813 3.757813-8.390625 8.394531-8.390625 4.636719 0 8.394532 3.757812 8.394532 8.390625v58.757812c0 4.632813-3.757813 8.390625-8.394532 8.390625zm0 0"/><path d="m142.539062 344.320312c-4.632812 0-8.390624-3.757812-8.390624-8.394531v-50.359375c0-4.636718 3.757812-8.394531 8.390624-8.394531 4.636719 0 8.394532 3.757813 8.394532 8.394531v50.359375c0 4.636719-3.757813 8.394531-8.394532 8.394531zm0 0"/><path d="m100.574219 293.957031c-4.636719 0-8.394531-3.757812-8.394531-8.390625v-22.160156c0-4.636719 3.757812-8.394531 8.394531-8.394531s8.394531 3.757812 8.394531 8.394531v22.160156c0 4.632813-3.757812 8.390625-8.394531 8.390625zm0 0"/><path d="m411.132812 352.710938c-4.636718 0-8.394531-3.757813-8.394531-8.390626v-58.753906c0-4.636718 3.757813-8.394531 8.394531-8.394531 4.632813 0 8.390626 3.757813 8.390626 8.394531v58.753906c0 4.632813-3.757813 8.390626-8.390626 8.390626zm0 0"/><path d="m453.097656 293.957031c-4.636718 0-8.394531-3.757812-8.394531-8.390625v-27.195312c0-4.636719 3.757813-8.394532 8.394531-8.394532 4.636719 0 8.394532 3.757813 8.394532 8.394532v27.195312c0 4.632813-3.757813 8.390625-8.394532 8.390625zm0 0"/><path d="m495.066406 411.464844h-41.96875c-4.636718 0-8.394531-3.757813-8.394531-8.390625 0-4.636719 3.757813-8.394531 8.394531-8.394531h41.96875c4.632813 0 8.390625 3.757812 8.390625 8.394531 0 4.632812-3.757812 8.390625-8.390625 8.390625zm0 0"/><path d="m411.132812 470.21875c-4.636718 0-8.394531-3.757812-8.394531-8.390625v-58.753906c0-4.636719 3.757813-8.394531 8.394531-8.394531 4.632813 0 8.390626 3.757812 8.390626 8.394531v58.753906c0 4.632813-3.757813 8.390625-8.390626 8.390625zm0 0"/><path d="m45.925781 430.265625c-1.296875 0-2.578125-.300781-3.738281-.878906l-30.804688-15.359375c-4.148437-2.070313-5.832031-7.109375-3.765624-11.257813 2.070312-4.148437 7.109374-5.835937 11.257812-3.769531l30.804688 15.363281c3.488281 1.738281 5.320312 5.644531 4.425781 9.4375s-4.28125 6.472657-8.179688 6.464844zm0 0"/><path d="m59.78125 391.695312c-3.332031.011719-6.355469-1.953124-7.695312-5l-17.007813-30.480468c-2.160156-4.035156-.6875-9.058594 3.308594-11.289063 4-2.230469 9.046875-.847656 11.347656 3.109375l17.375 31.136719c1.449219 2.605469 1.417969 5.78125-.089844 8.355469-1.503906 2.574218-4.257812 4.160156-7.238281 4.167968zm0 0"/><path d="m104.945312 430.265625c-3.894531.007813-7.28125-2.667969-8.179687-6.460937-.894531-3.789063.933594-7.699219 4.417969-9.4375l30.722656-15.363282c4.144531-2.070312 9.1875-.390625 11.261719 3.753906 2.070312 4.148438.390625 9.191407-3.753907 11.261719l-30.722656 15.363281c-1.160156.582032-2.445312.882813-3.746094.882813zm0 0"/><path d="m90.828125 392.078125c-2.976563-.003906-5.726563-1.582031-7.230469-4.144531-1.507812-2.566406-1.542968-5.738282-.09375-8.335938l17.542969-31.476562c2.257813-4.046875 7.367187-5.503906 11.417969-3.246094 4.050781 2.257812 5.503906 7.371094 3.246094 11.417969l-17.542969 31.476562c-1.484375 2.660157-4.292969 4.3125-7.339844 4.308594zm0 0"/><path d="m453.097656 411.464844h-318.949218c-4.636719 0-8.394532-3.757813-8.394532-8.390625 0-4.636719 3.757813-8.394531 8.394532-8.394531h318.949218c4.636719 0 8.394532 3.757812 8.394532 8.394531 0 4.632812-3.757813 8.390625-8.394532 8.390625zm0 0"/><path d="m276.835938 168.054688c-4.636719 0-8.394532-3.757813-8.394532-8.390626v-150.832031c0-4.636719 3.757813-8.394531 8.394532-8.394531 4.636718 0 8.394531 3.757812 8.394531 8.394531v150.832031c0 4.632813-3.757813 8.390626-8.394531 8.390626zm0 0"/><path d="m314.054688 117.457031c-12.0625.117188-24.03125-2.097656-35.253907-6.519531-6.285156-2.609375-10.371093-8.753906-10.359375-15.554688v-49.367187c-.027344-5.296875 2.488282-10.285156 6.769532-13.410156 4.375-3.1875 10-4.121094 15.171874-2.511719 23.464844 7.292969 47.351563 1.566406 72.625-4.496094 27.414063-6.578125 55.761719-13.394531 84.792969-3.117187 4.589844 1.601562 7.851563 5.699219 8.375 10.535156.558594 4.757813-1.675781 9.410156-5.734375 11.953125-6.742187 4.355469-13.109375 9.269531-19.03125 14.691406 7.265625 7.972656 14.109375 16.320313 20.496094 25.011719 3.238281 4.292969 3.328125 10.1875.222656 14.578125-3.117187 4.453125-8.726562 6.433594-13.949218 4.917969l-.003907-.003907c-23.039062-6.652343-46.449219-1.039062-71.25 4.910157-17.234375 4.855469-34.980469 7.671875-52.871093 8.382812zm-28.65625-71.328125-.167969 49.253906c24.988281 10.027344 50.625 3.875 77.777343-2.636718 22.199219-5.328125 45.074219-10.816406 68.40625-7.21875-4.851562-6.089844-9.855468-11.871094-15.132812-17.496094-2.292969-2.441406-3.515625-5.691406-3.402344-9.039062.109375-3.34375 1.550782-6.507813 4-8.792969 5.402344-5.085938 11.097656-9.851563 17.058594-14.265625-21.699219-4.890625-43.78125.410156-67.015625 5.996094-26.363281 6.320312-53.628906 12.855468-81.523437 4.199218zm0 0"/></svg>