<?xml version="1.0" encoding="iso-8859-1"?>
<!-- Generator: Adobe Illustrator 19.0.0, SVG Export Plug-In . SVG Version: 6.00 Build 0)  -->
<svg version="1.1" id="Capa_1" xmlns="http://www.w3.org/2000/svg" xmlns:xlink="http://www.w3.org/1999/xlink" x="0px" y="0px"
	 viewBox="0 0 512 512" style="enable-background:new 0 0 512 512;" xml:space="preserve">
<g>
	<path style="fill:#AE8B70;" d="M183.855,504.5h-16.032c-4.427,0-8.016-3.589-8.016-8.016V15.516c0-4.427,3.589-8.016,8.016-8.016
		h16.032c4.427,0,8.016,3.589,8.016,8.016v480.968C191.871,500.911,188.282,504.5,183.855,504.5z"/>
	<path style="fill:#AE8B70;" d="M344.177,504.5h-16.032c-4.427,0-8.016-3.589-8.016-8.016V15.516c0-4.427,3.589-8.016,8.016-8.016
		h16.032c4.427,0,8.016,3.589,8.016,8.016v480.968C352.194,500.911,348.605,504.5,344.177,504.5z"/>
</g>
<path d="M344.177,0h-16.032c-8.556,0-15.516,6.96-15.516,15.516v8.532H199.371v-8.532C199.371,6.96,192.411,0,183.855,0h-16.032
	c-8.556,0-15.516,6.96-15.516,15.516v480.968c0,8.556,6.96,15.516,15.516,15.516h16.032c8.556,0,15.516-6.96,15.516-15.516v-8.532
	h113.258v8.532c0,8.556,6.96,15.516,15.516,15.516h16.032c8.556,0,15.516-6.96,15.516-15.516V15.516
	C359.693,6.96,352.733,0,344.177,0z M199.371,248.5v-41.113h113.258V248.5H199.371z M312.629,263.5v41.113H199.371V263.5H312.629z
	 M199.371,319.613h113.258v41.113H199.371V319.613z M312.629,192.387H199.371v-41.113h113.258V192.387z M199.371,375.726h113.258
	v41.113H199.371V375.726z M312.629,136.274H199.371V95.161h113.258V136.274z M199.371,472.952v-8.534c0-4.142-3.358-7.5-7.5-7.5
	s-7.5,3.358-7.5,7.5v32.066c0,0.285-0.231,0.516-0.516,0.516h-16.032c-0.285,0-0.516-0.231-0.516-0.516V15.516
	c0-0.285,0.231-0.516,0.516-0.516h16.032c0.285,0,0.516,0.231,0.516,0.516v416.835c0,4.142,3.358,7.5,7.5,7.5s7.5-3.358,7.5-7.5
	v-0.512h113.258v41.113H199.371z M344.693,496.484c0,0.285-0.231,0.516-0.516,0.516h-16.032c-0.285,0-0.516-0.231-0.516-0.516V71.63
	c0-4.142-3.358-7.5-7.5-7.5s-7.5,3.358-7.5,7.5v8.531H199.371V39.048h113.258v0.514c0,4.142,3.358,7.5,7.5,7.5s7.5-3.358,7.5-7.5
	V15.516c0-0.285,0.231-0.516,0.516-0.516h16.032c0.285,0,0.516,0.231,0.516,0.516V496.484z"/>
<g>
</g>
<g>
</g>
<g>
</g>
<g>
</g>
<g>
</g>
<g>
</g>
<g>
</g>
<g>
</g>
<g>
</g>
<g>
</g>
<g>
</g>
<g>
</g>
<g>
</g>
<g>
</g>
<g>
</g>
</svg>
