<?xml version="1.0" encoding="iso-8859-1"?>
<!-- Generator: Adobe Illustrator 19.0.0, SVG Export Plug-In . SVG Version: 6.00 Build 0)  -->
<svg version="1.1" id="Capa_1" xmlns="http://www.w3.org/2000/svg" xmlns:xlink="http://www.w3.org/1999/xlink" x="0px" y="0px"
	 viewBox="0 0 512.004 512.004" style="enable-background:new 0 0 512.004 512.004;" xml:space="preserve">
<path style="fill:#303C42;" d="M510.21,346.008L339.544,89.813c-3.958-5.921-13.792-5.921-17.75,0l-30.882,46.357l-47.504-67.915
	c-4-5.671-13.479-5.671-17.479,0l-224,320.243c-2.281,3.273-2.563,7.527-0.719,11.05c1.833,3.544,5.479,5.754,9.458,5.754h136.514
	l-17.389,26.103c-2.177,3.273-2.385,7.485-0.531,10.967c1.854,3.461,5.469,5.629,9.406,5.629h256c3.938,0,7.552-2.168,9.406-5.629
	c1.854-3.482,1.646-7.693-0.531-10.967l-17.389-26.103h72.514c3.979,0,7.625-2.21,9.458-5.754c1.844-3.524,1.563-7.777-0.719-11.05
	l-18.112-25.895h52.039c3.938,0,7.552-2.168,9.406-5.629C512.596,353.493,512.398,349.281,510.21,346.008z"/>
<polygon style="fill:#FFCB58;" points="196.498,147.801 109.891,384.002 31.158,384.002 "/>
<polygon style="opacity:0.2;fill:#FFFFFF;enable-background:new    ;" points="31.158,384.002 50.448,384.002 196.498,147.801 "/>
<g>
	<polygon style="fill:#FFCB58;" points="238.528,306.774 205.225,426.669 158.596,426.669 	"/>
	<polygon style="fill:#FFCB58;" points="227.372,426.669 270.715,270.635 374.741,426.669 	"/>
</g>
<polygon style="opacity:0.1;enable-background:new    ;" points="351.669,426.669 270.715,270.635 374.741,426.669 "/>
<path style="fill:#FFCB58;" d="M371.933,384.002l-96.389-144.583c-3.958-5.917-13.792-5.917-17.75,0l-96.389,144.583h-28.803
	L237.644,97.523l200.535,286.479H371.933z"/>
<polygon style="opacity:0.1;enable-background:new    ;" points="237.644,97.523 405.335,384.002 438.179,384.002 "/>
<polygon style="fill:#FFCB58;" points="434.363,341.335 316.477,172.928 333.93,120.123 481.408,341.335 "/>
<polygon style="opacity:0.1;enable-background:new    ;" points="434.363,341.335 316.477,172.928 451.669,341.335 "/>
<linearGradient id="SVGID_1_" gradientUnits="userSpaceOnUse" x1="-42.734" y1="635.4825" x2="-23.704" y2="626.606" gradientTransform="matrix(21.3333 0 0 -21.3333 998.4606 13763.1211)">
	<stop  offset="0" style="stop-color:#FFFFFF;stop-opacity:0.2"/>
	<stop  offset="1" style="stop-color:#FFFFFF;stop-opacity:0"/>
</linearGradient>
<path style="fill:url(#SVGID_1_);" d="M510.21,346.008L339.544,89.813c-3.958-5.921-13.792-5.921-17.75,0l-30.882,46.357
	l-47.504-67.915c-4-5.671-13.479-5.671-17.479,0l-224,320.243c-2.281,3.273-2.563,7.527-0.719,11.05
	c1.833,3.544,5.479,5.754,9.458,5.754h136.514l-17.389,26.103c-2.177,3.273-2.385,7.485-0.531,10.967
	c1.854,3.461,5.469,5.629,9.406,5.629h256c3.938,0,7.552-2.168,9.406-5.629c1.854-3.482,1.646-7.693-0.531-10.967l-17.389-26.103
	h72.514c3.979,0,7.625-2.21,9.458-5.754c1.844-3.524,1.563-7.777-0.719-11.05l-18.112-25.895h52.039
	c3.938,0,7.552-2.168,9.406-5.629C512.596,353.493,512.398,349.281,510.21,346.008z"/>
<g>
</g>
<g>
</g>
<g>
</g>
<g>
</g>
<g>
</g>
<g>
</g>
<g>
</g>
<g>
</g>
<g>
</g>
<g>
</g>
<g>
</g>
<g>
</g>
<g>
</g>
<g>
</g>
<g>
</g>
</svg>
